<?xml version="1.0" encoding="UTF-8"?>
<svg xmlns="http://www.w3.org/2000/svg" xmlns:xlink="http://www.w3.org/1999/xlink" width="24pt" height="24pt" viewBox="0 0 24 24" version="1.1">
<g id="surface1">
<path style=" stroke:none;fill-rule:nonzero;fill:rgb(100%,100%,100%);fill-opacity:1;" d="M 22.074219 15.753906 C 20.605469 15.753906 19.164062 15.523438 17.796875 15.070312 C 17.125 14.84375 16.300781 15.054688 15.890625 15.472656 L 13.195312 17.511719 C 10.0625 15.839844 8.136719 13.914062 6.488281 10.804688 L 8.464844 8.179688 C 8.980469 7.664062 9.164062 6.914062 8.941406 6.210938 C 8.488281 4.839844 8.257812 3.394531 8.257812 1.925781 C 8.257812 0.863281 7.394531 0 6.332031 0 L 1.925781 0 C 0.863281 0 0 0.863281 0 1.925781 C 0 14.097656 9.902344 24 22.074219 24 C 23.136719 24 24 23.136719 24 22.074219 L 24 17.679688 C 24 16.617188 23.136719 15.753906 22.074219 15.753906 Z M 22.074219 15.753906 "/>
</g>
</svg>
