<?xml version="1.0" encoding="UTF-8"?>
<svg xmlns="http://www.w3.org/2000/svg" xmlns:xlink="http://www.w3.org/1999/xlink" width="24pt" height="24pt" viewBox="0 0 24 24" version="1.1">
<g id="surface1">
<path style=" stroke:none;fill-rule:nonzero;fill:rgb(0%,0%,0%);fill-opacity:1;" d="M 4.890625 15.953125 C 7.257812 18.785156 10.105469 21.011719 13.359375 22.585938 C 14.597656 23.175781 16.253906 23.871094 18.097656 23.988281 C 18.214844 23.996094 18.324219 24 18.4375 24 C 19.675781 24 20.671875 23.574219 21.480469 22.691406 C 21.484375 22.6875 21.496094 22.675781 21.5 22.667969 C 21.789062 22.320312 22.117188 22.003906 22.460938 21.671875 C 22.695312 21.449219 22.933594 21.214844 23.160156 20.976562 C 24.222656 19.871094 24.222656 18.46875 23.152344 17.402344 L 20.164062 14.410156 C 19.65625 13.886719 19.046875 13.605469 18.414062 13.605469 C 17.777344 13.605469 17.164062 13.886719 16.640625 14.40625 L 14.863281 16.1875 C 14.699219 16.09375 14.527344 16.007812 14.367188 15.929688 C 14.171875 15.828125 13.984375 15.734375 13.820312 15.628906 C 12.199219 14.601562 10.730469 13.257812 9.320312 11.53125 C 8.609375 10.632812 8.132812 9.875 7.800781 9.105469 C 8.265625 8.683594 8.703125 8.242188 9.128906 7.808594 C 9.277344 7.652344 9.429688 7.5 9.585938 7.34375 C 10.121094 6.808594 10.410156 6.1875 10.410156 5.554688 C 10.410156 4.921875 10.128906 4.300781 9.585938 3.765625 L 8.101562 2.28125 C 7.929688 2.109375 7.765625 1.941406 7.597656 1.765625 C 7.269531 1.425781 6.925781 1.078125 6.585938 0.765625 C 6.074219 0.261719 5.472656 0 4.835938 0 C 4.203125 0 3.597656 0.261719 3.066406 0.769531 L 1.207031 2.628906 C 0.527344 3.308594 0.144531 4.128906 0.0664062 5.078125 C -0.0273438 6.265625 0.191406 7.527344 0.757812 9.054688 C 1.628906 11.417969 2.941406 13.609375 4.890625 15.953125 Z M 1.28125 5.183594 C 1.339844 4.519531 1.59375 3.96875 2.070312 3.492188 L 3.921875 1.640625 C 4.210938 1.363281 4.527344 1.21875 4.835938 1.21875 C 5.140625 1.21875 5.449219 1.363281 5.730469 1.652344 C 6.0625 1.960938 6.378906 2.28125 6.714844 2.625 C 6.882812 2.800781 7.058594 2.972656 7.234375 3.152344 L 8.714844 4.636719 C 9.023438 4.941406 9.183594 5.257812 9.183594 5.566406 C 9.183594 5.875 9.023438 6.1875 8.714844 6.496094 C 8.5625 6.648438 8.40625 6.808594 8.253906 6.960938 C 7.789062 7.429688 7.355469 7.871094 6.878906 8.296875 C 6.871094 8.304688 6.863281 8.308594 6.855469 8.320312 C 6.441406 8.734375 6.507812 9.125 6.605469 9.425781 C 6.609375 9.4375 6.617188 9.449219 6.621094 9.464844 C 7.003906 10.382812 7.535156 11.257812 8.367188 12.304688 C 9.859375 14.144531 11.429688 15.570312 13.160156 16.667969 C 13.375 16.808594 13.601562 16.917969 13.816406 17.027344 C 14.015625 17.128906 14.199219 17.222656 14.363281 17.324219 C 14.382812 17.335938 14.398438 17.347656 14.417969 17.355469 C 14.582031 17.441406 14.742188 17.480469 14.902344 17.480469 C 15.300781 17.480469 15.558594 17.226562 15.640625 17.140625 L 17.503906 15.28125 C 17.789062 14.992188 18.105469 14.839844 18.414062 14.839844 C 18.789062 14.839844 19.097656 15.074219 19.292969 15.28125 L 22.292969 18.277344 C 22.886719 18.871094 22.882812 19.519531 22.277344 20.152344 C 22.066406 20.375 21.847656 20.589844 21.613281 20.8125 C 21.265625 21.152344 20.902344 21.5 20.574219 21.890625 C 20.003906 22.507812 19.324219 22.796875 18.441406 22.796875 C 18.359375 22.796875 18.269531 22.792969 18.183594 22.785156 C 16.550781 22.683594 15.035156 22.046875 13.898438 21.503906 C 10.804688 20.007812 8.089844 17.882812 5.835938 15.1875 C 3.980469 12.953125 2.730469 10.875 1.90625 8.648438 C 1.394531 7.28125 1.199219 6.179688 1.28125 5.183594 Z M 1.28125 5.183594 "/>
</g>
</svg>
