<?xml version="1.0" encoding="UTF-8"?>
<svg xmlns="http://www.w3.org/2000/svg" xmlns:xlink="http://www.w3.org/1999/xlink" width="24pt" height="24pt" viewBox="0 0 24 24" version="1.1">
<g id="surface1">
<path style=" stroke:none;fill-rule:nonzero;fill:rgb(13.333333%,13.333333%,13.333333%);fill-opacity:1;" d="M 12 0 C 5.378906 0 0 5.378906 0 12 C 0 18.621094 5.378906 24 12 24 C 18.621094 24 24 18.621094 24 12 C 24 5.378906 18.621094 0 12 0 Z M 12 22.789062 C 6.054688 22.789062 1.210938 17.945312 1.210938 12 C 1.210938 6.054688 6.054688 1.210938 12 1.210938 C 17.945312 1.210938 22.789062 6.054688 22.789062 12 C 22.789062 17.945312 17.945312 22.789062 12 22.789062 Z M 12 22.789062 "/>
<path style=" stroke:none;fill-rule:nonzero;fill:rgb(13.333333%,13.333333%,13.333333%);fill-opacity:1;" d="M 12.84375 11.945312 L 16.367188 8.421875 C 16.589844 8.195312 16.589844 7.804688 16.367188 7.578125 C 16.140625 7.351562 15.746094 7.351562 15.519531 7.578125 L 12 11.097656 L 8.480469 7.578125 C 8.253906 7.351562 7.859375 7.351562 7.632812 7.578125 C 7.410156 7.804688 7.410156 8.195312 7.632812 8.421875 L 11.15625 11.945312 L 7.632812 15.4375 C 7.410156 15.660156 7.410156 16.054688 7.632812 16.28125 C 7.746094 16.394531 7.914062 16.449219 8.054688 16.449219 C 8.195312 16.449219 8.367188 16.394531 8.480469 16.28125 L 12 12.761719 L 15.519531 16.28125 C 15.632812 16.394531 15.804688 16.449219 15.945312 16.449219 C 16.085938 16.449219 16.253906 16.394531 16.367188 16.28125 C 16.589844 16.054688 16.589844 15.660156 16.367188 15.4375 Z M 12.84375 11.945312 "/>
</g>
</svg>
