<?xml version="1.0" encoding="UTF-8"?>
<svg xmlns="http://www.w3.org/2000/svg" xmlns:xlink="http://www.w3.org/1999/xlink" width="24pt" height="24pt" viewBox="0 0 24 24" version="1.1">
<g id="surface1">
<path style=" stroke:none;fill-rule:nonzero;fill:rgb(100%,100%,100%);fill-opacity:1;" d="M 12 0 C 5.382812 0 0 5.382812 0 12 C 0 14.308594 0.648438 16.523438 1.871094 18.433594 L 0.0546875 22.972656 C -0.0585938 23.25 0.0078125 23.566406 0.21875 23.78125 C 0.363281 23.921875 0.554688 24 0.75 24 C 0.84375 24 0.9375 23.980469 1.027344 23.945312 L 5.566406 22.128906 C 7.476562 23.351562 9.691406 24 12 24 C 18.617188 24 24 18.617188 24 12 C 24 5.382812 18.617188 0 12 0 Z M 12 22.5 C 9.859375 22.5 7.8125 21.867188 6.082031 20.667969 C 5.953125 20.578125 5.804688 20.535156 5.65625 20.535156 C 5.558594 20.535156 5.464844 20.554688 5.375 20.589844 L 2.097656 21.902344 L 3.410156 18.625 C 3.503906 18.390625 3.472656 18.125 3.332031 17.917969 C 2.132812 16.1875 1.5 14.140625 1.5 12 C 1.5 6.210938 6.210938 1.5 12 1.5 C 17.789062 1.5 22.5 6.210938 22.5 12 C 22.5 17.789062 17.789062 22.5 12 22.5 Z M 12 22.5 "/>
</g>
</svg>
