<?xml version="1.0" encoding="UTF-8"?>
<svg xmlns="http://www.w3.org/2000/svg" xmlns:xlink="http://www.w3.org/1999/xlink" width="24pt" height="24pt" viewBox="0 0 24 24" version="1.1">
<g id="surface1">
<path style=" stroke:none;fill-rule:nonzero;fill:rgb(0%,0%,0%);fill-opacity:1;" d="M 21.75 3 L 2.25 3 C 1.007812 3 0 4.007812 0 5.25 L 0 18.75 C 0 19.992188 1.007812 21 2.25 21 L 21.75 21 C 22.992188 21 24 19.992188 24 18.75 L 24 5.25 C 24 4.007812 22.992188 3 21.75 3 Z M 21.75 4.5 C 21.851562 4.5 21.949219 4.519531 22.039062 4.558594 L 12 13.257812 L 1.960938 4.558594 C 2.050781 4.519531 2.148438 4.5 2.25 4.5 Z M 21.75 19.5 L 2.25 19.5 C 1.835938 19.5 1.5 19.164062 1.5 18.75 L 1.5 6.144531 L 11.507812 14.816406 C 11.648438 14.9375 11.824219 15 12 15 C 12.175781 15 12.351562 14.9375 12.492188 14.816406 L 22.5 6.144531 L 22.5 18.75 C 22.5 19.164062 22.164062 19.5 21.75 19.5 Z M 21.75 19.5 "/>
</g>
</svg>
