<?xml version="1.0" encoding="UTF-8"?>
<svg xmlns="http://www.w3.org/2000/svg" xmlns:xlink="http://www.w3.org/1999/xlink" width="24pt" height="24pt" viewBox="0 0 24 24" version="1.1">
<g id="surface1">
<path style=" stroke:none;fill-rule:nonzero;fill:rgb(100%,100%,100%);fill-opacity:1;" d="M 12 0 C 5.363281 0 0 5.363281 0 12 C 0 18.636719 5.363281 24 12 24 C 18.636719 24 24 18.636719 24 12 C 24 5.363281 18.636719 0 12 0 Z M 8.378906 1.632812 C 7.746094 2.523438 7.203125 3.460938 6.753906 4.441406 L 4.03125 4.441406 C 5.21875 3.183594 6.703125 2.214844 8.378906 1.632812 Z M 3.171875 5.460938 L 6.320312 5.460938 C 5.582031 7.371094 5.171875 9.410156 5.113281 11.488281 L 1.035156 11.488281 C 1.136719 9.238281 1.914062 7.160156 3.171875 5.460938 Z M 3.171875 18.539062 C 1.914062 16.839844 1.136719 14.761719 1.035156 12.511719 L 5.113281 12.511719 C 5.171875 14.589844 5.59375 16.628906 6.339844 18.539062 Z M 4.03125 19.558594 L 6.777344 19.558594 C 7.234375 20.539062 7.773438 21.488281 8.398438 22.375 C 6.71875 21.796875 5.222656 20.820312 4.03125 19.558594 Z M 11.488281 22.96875 C 10.980469 22.945312 10.472656 22.886719 9.984375 22.796875 C 9.167969 21.792969 8.472656 20.707031 7.90625 19.5625 L 11.488281 19.5625 Z M 11.488281 18.539062 L 7.441406 18.539062 C 6.648438 16.632812 6.199219 14.597656 6.136719 12.511719 L 11.488281 12.511719 Z M 11.488281 11.488281 L 6.136719 11.488281 C 6.199219 9.410156 6.644531 7.367188 7.429688 5.460938 L 11.488281 5.460938 Z M 11.496094 4.441406 L 7.898438 4.441406 C 8.464844 3.289062 9.164062 2.203125 9.984375 1.207031 C 10.472656 1.113281 10.980469 1.058594 11.496094 1.035156 Z M 20.828125 5.460938 C 22.085938 7.160156 22.867188 9.230469 22.964844 11.488281 L 18.886719 11.488281 C 18.828125 9.410156 18.40625 7.371094 17.660156 5.460938 Z M 19.96875 4.441406 L 17.222656 4.441406 C 16.765625 3.460938 16.226562 2.511719 15.597656 1.625 C 17.28125 2.203125 18.777344 3.179688 19.96875 4.441406 Z M 12.511719 1.035156 C 13.019531 1.058594 13.527344 1.117188 14.015625 1.207031 C 14.832031 2.214844 15.527344 3.296875 16.09375 4.441406 L 12.511719 4.441406 Z M 12.511719 5.460938 L 16.558594 5.460938 C 17.351562 7.363281 17.800781 9.402344 17.863281 11.488281 L 12.511719 11.488281 Z M 12.511719 12.511719 L 17.863281 12.511719 C 17.800781 14.589844 17.355469 16.632812 16.570312 18.539062 L 12.511719 18.539062 Z M 12.503906 22.964844 L 12.503906 19.558594 L 16.101562 19.558594 C 15.535156 20.710938 14.835938 21.796875 14.015625 22.792969 C 13.527344 22.886719 13.019531 22.941406 12.503906 22.964844 Z M 15.597656 22.375 C 16.222656 21.488281 16.761719 20.539062 17.210938 19.558594 L 19.976562 19.558594 C 18.777344 20.820312 17.28125 21.796875 15.597656 22.375 Z M 17.644531 18.539062 C 18.378906 16.628906 18.796875 14.589844 18.882812 12.511719 L 22.96875 12.511719 C 22.867188 14.761719 22.089844 16.839844 20.835938 18.539062 Z M 17.644531 18.539062 "/>
</g>
</svg>
