<?xml version="1.0" encoding="UTF-8"?>
<svg xmlns="http://www.w3.org/2000/svg" xmlns:xlink="http://www.w3.org/1999/xlink" width="24pt" height="24pt" viewBox="0 0 24 24" version="1.1">
<g id="surface1">
<path style=" stroke:none;fill-rule:nonzero;fill:rgb(26.666667%,26.666667%,26.666667%);fill-opacity:1;" d="M 23.992188 24 L 24 24 L 24 15.195312 C 24 10.890625 23.074219 7.574219 18.039062 7.574219 C 15.617188 7.574219 13.996094 8.902344 13.332031 10.160156 L 13.261719 10.160156 L 13.261719 7.976562 L 8.488281 7.976562 L 8.488281 24 L 13.460938 24 L 13.460938 16.066406 C 13.460938 13.976562 13.855469 11.957031 16.441406 11.957031 C 18.992188 11.957031 19.027344 14.339844 19.027344 16.199219 L 19.027344 24 Z M 23.992188 24 "/>
<path style=" stroke:none;fill-rule:nonzero;fill:rgb(26.666667%,26.666667%,26.666667%);fill-opacity:1;" d="M 0.394531 7.976562 L 5.371094 7.976562 L 5.371094 24 L 0.394531 24 Z M 0.394531 7.976562 "/>
<path style=" stroke:none;fill-rule:nonzero;fill:rgb(26.666667%,26.666667%,26.666667%);fill-opacity:1;" d="M 2.882812 0 C 1.289062 0 0 1.289062 0 2.882812 C 0 4.472656 1.289062 5.789062 2.882812 5.789062 C 4.472656 5.789062 5.765625 4.472656 5.765625 2.882812 C 5.761719 1.289062 4.472656 0 2.882812 0 Z M 2.882812 0 "/>
</g>
</svg>
