<?xml version="1.0" encoding="UTF-8"?>
<svg xmlns="http://www.w3.org/2000/svg" xmlns:xlink="http://www.w3.org/1999/xlink" width="24pt" height="26pt" viewBox="0 0 24 26" version="1.1">
<g id="surface1">
<path style=" stroke:none;fill-rule:evenodd;fill:rgb(51.372549%,53.333333%,55.294118%);fill-opacity:1;" d="M 18.230469 18.039062 C 19.796875 16.046875 20.535156 13.542969 20.296875 11.035156 C 20.054688 8.527344 18.855469 6.203125 16.9375 4.539062 C 15.019531 2.871094 12.527344 1.988281 9.972656 2.066406 C 7.414062 2.144531 4.984375 3.179688 3.175781 4.957031 C 1.363281 6.738281 0.308594 9.132812 0.226562 11.652344 C 0.148438 14.171875 1.042969 16.628906 2.738281 18.519531 C 4.429688 20.410156 6.792969 21.59375 9.339844 21.828125 C 11.890625 22.0625 14.433594 21.332031 16.453125 19.785156 L 16.507812 19.839844 L 21.839844 25.09375 C 21.957031 25.210938 22.097656 25.300781 22.25 25.363281 C 22.402344 25.425781 22.566406 25.457031 22.730469 25.457031 C 22.894531 25.457031 23.058594 25.425781 23.210938 25.363281 C 23.363281 25.300781 23.503906 25.210938 23.621094 25.09375 C 23.738281 24.980469 23.828125 24.84375 23.894531 24.691406 C 23.957031 24.542969 23.988281 24.382812 23.988281 24.21875 C 23.988281 24.054688 23.957031 23.894531 23.894531 23.746094 C 23.828125 23.59375 23.738281 23.457031 23.621094 23.34375 L 18.285156 18.089844 C 18.269531 18.074219 18.25 18.054688 18.230469 18.039062 Z M 15.621094 6.710938 C 16.328125 7.398438 16.894531 8.21875 17.28125 9.121094 C 17.667969 10.023438 17.867188 10.996094 17.871094 11.976562 C 17.875 12.957031 17.683594 13.925781 17.304688 14.832031 C 16.925781 15.742188 16.367188 16.566406 15.664062 17.257812 C 14.960938 17.953125 14.121094 18.5 13.203125 18.875 C 12.28125 19.246094 11.292969 19.4375 10.300781 19.433594 C 9.304688 19.429688 8.320312 19.230469 7.402344 18.851562 C 6.484375 18.46875 5.652344 17.914062 4.953125 17.214844 C 3.558594 15.816406 2.777344 13.933594 2.785156 11.976562 C 2.796875 10.015625 3.589844 8.136719 4.996094 6.753906 C 6.402344 5.367188 8.308594 4.585938 10.300781 4.578125 C 12.289062 4.570312 14.203125 5.335938 15.621094 6.710938 Z M 15.621094 6.710938 "/>
</g>
</svg>
