<?xml version="1.0" encoding="UTF-8"?>
<svg xmlns="http://www.w3.org/2000/svg" xmlns:xlink="http://www.w3.org/1999/xlink" width="24pt" height="24pt" viewBox="0 0 24 24" version="1.1">
<g id="surface1">
<path style=" stroke:none;fill-rule:nonzero;fill:rgb(100%,100%,100%);fill-opacity:1;" d="M 23.347656 17.613281 L 19.996094 14.265625 C 18.800781 13.066406 16.769531 13.546875 16.289062 15.101562 C 15.929688 16.179688 14.734375 16.777344 13.65625 16.535156 C 11.265625 15.9375 8.035156 12.828125 7.4375 10.316406 C 7.078125 9.242188 7.796875 8.042969 8.875 7.683594 C 10.429688 7.207031 10.90625 5.171875 9.710938 3.976562 L 6.359375 0.628906 C 5.402344 -0.210938 3.96875 -0.210938 3.132812 0.628906 L 0.859375 2.902344 C -1.414062 5.292969 1.097656 11.632812 6.71875 17.253906 C 12.34375 22.875 18.683594 25.507812 21.074219 23.117188 L 23.347656 20.84375 C 24.183594 19.886719 24.183594 18.449219 23.347656 17.613281 Z M 23.347656 17.613281 "/>
</g>
</svg>
